PathFileType	4	(X/Y/Z)	1H_rest_slow_right.trc
DataRate	CameraRate	NumFrames	NumMarkers	Units	OrigDataRate	OrigDataStartFrame	OrigNumFrames
250.00	250.00	12	18	mm	250.00	18535	21182
Frame#	Time	c7	r_should	l_should	clavicle	r_upa	r_elb_l	r_elb_m	r_low	r_wri_l	r_wri_m	r_met	l_upa	l_elb_l	l_elb_m	l_low	l_wri_l	l_wri_m	l_met
	X1	Y1	Z1	X2	Y2	Z2	X3	Y3	Z3	X4	Y4	Z4	X5	Y5	Z5	X6	Y6	Z6	X7	Y7	Z7	X8	Y8	Z8	X9	Y9	Z9	X10	Y10	Z10	X11	Y11	Z11	X12	Y12	Z12	X13	Y13	Z13	X14	Y14	Z14	X15	Y15	Z15	X16	Y16	Z16	X17	Y17	Z17	X18	Y18	Z18
18535	74.13600	631.23431	1419.03162	307.13986	696.08014	1354.58398	447.72015	656.27832	1374.49841	129.51295	754.88403	1276.79443	273.07956	694.38788	1142.25244	501.15079	691.74188	1050.44617	519.33801	668.41235	1015.61060	432.90057	729.13013	862.67175	519.83514	745.50439	790.06293	495.03595	677.37354	782.72247	520.21545	762.28271	707.32068	531.05481	624.01910	1189.38086	51.26595	623.24896	1081.57361	36.48449	574.95929	1048.51733	102.65758	651.69977	915.60974	35.99338	677.69586	841.52405	68.19754	610.86633	826.60938	39.45824	697.26868	751.19086	38.48087
18536	74.14000	631.26678	1419.02759	307.14133	696.08917	1354.57556	447.72668	656.31317	1374.49902	129.51213	754.90601	1276.78687	273.08380	694.39612	1142.24329	501.15460	691.75330	1050.43298	519.33704	668.42566	1015.61096	432.89328	729.13757	862.65820	519.83228	745.50977	790.04657	495.03024	677.38684	782.70898	520.20233	762.28284	707.30127	531.04834	624.04767	1189.37939	51.25953	623.28137	1081.57373	36.48703	574.98767	1048.52441	102.65007	651.73975	915.61652	35.98515	677.73010	841.52435	68.20065	610.90503	826.61487	39.44897	697.30756	751.19495	38.48597
18537	74.14400	631.29962	1419.01868	307.13940	696.09711	1354.56213	447.73065	656.35468	1374.49451	129.51120	754.93323	1276.77820	273.09357	694.40930	1142.23022	501.16037	691.76831	1050.42017	519.33374	668.44775	1015.60248	432.87949	729.14935	862.64252	519.82495	745.51611	790.02063	495.03036	677.39789	782.69696	520.18848	762.28503	707.28510	531.04382	624.07886	1189.38293	51.26006	623.31622	1081.57312	36.48529	575.01788	1048.52966	102.64127	651.77557	915.61804	35.98702	677.76727	841.52521	68.21020	610.94733	826.61963	39.44750	697.35248	751.19489	38.49670
18538	74.14800	631.33289	1419.01489	307.13452	696.11597	1354.54651	447.73376	656.40234	1374.49023	129.51431	754.96600	1276.76660	273.10568	694.42535	1142.21838	501.16193	691.78400	1050.40906	519.33002	668.47107	1015.59448	432.87723	729.16437	862.62720	519.82166	745.53113	790.00415	495.02246	677.40820	782.68250	520.17480	762.29156	707.27008	531.03174	624.11725	1189.38757	51.26039	623.35706	1081.57056	36.48627	575.05029	1048.52319	102.63829	651.81555	915.61761	35.98699	677.81012	841.53082	68.21451	610.99420	826.61884	39.44870	697.39844	751.19995	38.50397
18539	74.15200	631.36664	1419.01331	307.12976	696.13812	1354.53687	447.73169	656.44788	1374.48645	129.52043	755.00262	1276.76257	273.11588	694.44226	1142.20752	501.15561	691.79883	1050.39551	519.32819	668.49609	1015.58783	432.87433	729.17963	862.61591	519.81744	745.54871	789.99438	495.01389	677.42322	782.67041	520.15723	762.29974	707.25439	531.02063	624.15100	1189.37891	51.26126	623.39673	1081.56836	36.48928	575.08026	1048.52478	102.63098	651.86536	915.62390	35.98729	677.85516	841.53308	68.22414	611.04248	826.61688	39.44720	697.44861	751.20990	38.50872
18540	74.15600	631.40100	1419.01062	307.12003	696.16437	1354.53320	447.73782	656.49445	1374.48840	129.51987	755.04639	1276.76099	273.12366	694.46411	1142.19897	501.15491	691.81964	1050.38428	519.32416	668.53619	1015.57135	432.85919	729.19263	862.59888	519.80829	745.56952	789.98755	495.00073	677.43408	782.66223	520.14032	762.31219	707.23822	531.00909	624.19196	1189.37463	51.26362	623.43994	1081.57104	36.49314	575.11151	1048.52856	102.61990	651.91901	915.63422	35.99301	677.90576	841.54486	68.22442	611.08698	826.61975	39.45226	697.50629	751.22235	38.50913
18541	74.16000	631.43726	1419.01404	307.11731	696.18933	1354.53137	447.74246	656.54932	1374.48462	129.52393	755.09326	1276.76147	273.13226	694.48462	1142.19287	501.15479	691.84039	1050.38196	519.31677	668.56628	1015.56635	432.85248	729.21417	862.59296	519.80011	745.59558	789.97803	494.99298	677.44574	782.65527	520.11639	762.32465	707.23035	530.99805	624.24872	1189.38379	51.26379	623.49133	1081.57507	36.50185	575.14142	1048.53174	102.61069	651.97101	915.64069	36.00447	677.95825	841.55328	68.22720	611.12970	826.62592	39.45630	697.56921	751.23621	38.50988
18542	74.16400	631.47607	1419.01819	307.11685	696.21844	1354.52551	447.74872	656.60620	1374.47998	129.52603	755.14172	1276.77197	273.14273	694.50452	1142.18054	501.15015	691.86377	1050.37732	519.30652	668.58240	1015.56311	432.84488	729.23932	862.58948	519.79395	745.62024	789.97382	494.98575	677.45959	782.64819	520.09509	762.34149	707.22485	530.98834	624.29639	1189.38013	51.26515	623.54413	1081.58142	36.50585	575.18121	1048.53247	102.60195	652.02618	915.64618	36.01109	678.01251	841.55701	68.23303	611.17273	826.63141	39.46297	697.62872	751.25122	38.51427
18543	74.16800	631.51147	1419.02112	307.11902	696.24054	1354.51746	447.75317	656.66541	1374.47961	129.52684	755.18872	1276.77844	273.15848	694.52136	1142.16980	501.15161	691.88501	1050.36682	519.30048	668.59839	1015.55457	432.84033	729.25269	862.58752	519.78967	745.64661	789.97382	494.97397	677.47009	782.63953	520.07556	762.35791	707.21967	530.98126	624.34784	1189.37463	51.26650	623.59644	1081.58630	36.51001	575.21912	1048.53845	102.59572	652.08032	915.65259	36.01321	678.06720	841.56323	68.23893	611.22406	826.62836	39.47336	697.68988	751.26196	38.52123
18544	74.17200	631.54358	1419.02319	307.11887	696.26013	1354.51636	447.75858	656.73138	1374.47546	129.53232	755.23755	1276.77795	273.17740	694.53461	1142.16809	501.15073	691.90588	1050.35278	519.29834	668.61255	1015.54681	432.82849	729.27429	862.57910	519.77942	745.67529	789.97437	494.96707	677.47833	782.63086	520.06213	762.37329	707.21271	530.97223	624.40228	1189.37256	51.26880	623.65521	1081.59253	36.51231	575.26044	1048.54126	102.58310	652.13708	915.65125	36.01806	678.11884	841.56366	68.24883	611.27466	826.62744	39.48257	697.75305	751.26813	38.53587
18545	74.17600	631.57458	1419.02954	307.11890	696.27618	1354.51196	447.77136	656.79016	1374.47363	129.53770	755.28729	1276.78296	273.19849	694.54736	1142.16187	501.15228	691.92249	1050.34631	519.29822	668.63513	1015.53583	432.82074	729.29083	862.56995	519.77148	745.69513	789.97430	494.96167	677.48175	782.62622	520.05396	762.38776	707.20581	530.96210	624.45758	1189.36670	51.26967	623.71307	1081.59619	36.51245	575.29846	1048.53882	102.57426	652.19019	915.65393	36.02148	678.17096	841.56036	68.25958	611.31873	826.62616	39.48885	697.80695	751.27466	38.54762
18546	74.18000	631.60382	1419.02783	307.12064	696.28436	1354.50439	447.78470	656.84448	1374.46765	129.53964	755.33417	1276.78772	273.22205	694.56073	1142.14929	501.15286	691.93604	1050.33826	519.29169	668.65924	1015.52808	432.80844	729.29285	862.56116	519.76599	745.71075	789.96985	494.95447	677.48907	782.61469	520.04358	762.39636	707.19812	530.95947	624.52472	1189.36108	51.26805	623.77112	1081.59509	36.51239	575.33563	1048.53625	102.56820	652.24408	915.65546	36.02992	678.21490	841.55359	68.27243	611.36267	826.62769	39.49262	697.85303	751.27393	38.55870
